<svg width="512" height="512" viewBox="0 0 512 512" fill="none" xmlns="http://www.w3.org/2000/svg">
  <rect width="512" height="512" rx="128" fill="#4B0082"/>
  <path d="M256 128C179.373 128 128 179.373 128 256C128 332.627 179.373 384 256 384C332.627 384 384 332.627 384 256C384 179.373 332.627 128 256 128ZM304 272H272V304C272 313.255 264.255 320 256 320C247.745 320 240 313.255 240 304V272H208C198.745 272 192 264.255 192 256C192 247.745 198.745 240 208 240H240V208C240 198.745 247.745 192 256 192C264.255 192 272 198.745 272 208V240H304C313.255 240 320 247.745 320 256C320 264.255 313.255 272 304 272Z" fill="white"/>
</svg>
